<svg width="631" height="566" viewBox="0 0 631 566" fill="none" xmlns="http://www.w3.org/2000/svg">
<g clip-path="url(#clip0_103_27)">
<path d="M315.5 631C489.746 631 631 489.746 631 315.5C631 141.254 489.746 0 315.5 0C141.254 0 0 141.254 0 315.5C0 489.746 141.254 631 315.5 631Z" fill="#F2E6DC"/>
<path d="M384.114 460.22H138.341V572.903H384.114V460.22Z" fill="white"/>
<path d="M182.442 485.436C195.962 485.436 206.937 496.411 206.937 509.931V572.903H157.943V509.931C157.943 496.411 168.918 485.436 182.438 485.436H182.442Z" fill="#F7F1EB"/>
<path d="M261.224 485.436C274.744 485.436 285.719 496.411 285.719 509.931V572.903H236.725V509.931C236.725 496.411 247.7 485.436 261.22 485.436H261.224Z" fill="#F7F1EB"/>
<path d="M340.009 485.436C353.529 485.436 364.504 496.411 364.504 509.931V572.903H315.51V509.931C315.51 496.411 326.486 485.436 340.006 485.436H340.009Z" fill="#F7F1EB"/>
<path d="M417.615 348.729H71.7961V469.909H417.615V348.729Z" fill="#8B865C"/>
<path d="M435.249 319.186H382.986V572.903H435.249V319.186Z" fill="#363E44"/>
<path d="M588.654 455.427H424.28V572.903H588.654V455.427Z" fill="#363E44"/>
<path d="M382.783 447.486H137.01V460.537H382.783V447.486Z" fill="#8B865C"/>
<path d="M597.681 465.571H410.391V328.789L504.038 243.942L597.681 328.789V465.571Z" fill="#8B865C"/>
<path d="M496.18 335.654H434.745V439.386H496.18V335.654Z" fill="#363E44"/>
<path d="M465.461 438.445C465.271 438.445 465.116 438.29 465.116 438.1V335.654C465.116 335.464 465.271 335.309 465.461 335.309C465.65 335.309 465.806 335.464 465.806 335.654V438.1C465.806 438.29 465.65 438.445 465.461 438.445Z" fill="#D3BBA3"/>
<path d="M573.327 335.654H511.893V439.386H573.327V335.654Z" fill="#363E44"/>
<path d="M542.612 438.445C542.422 438.445 542.267 438.29 542.267 438.1V335.654C542.267 335.464 542.422 335.309 542.612 335.309C542.801 335.309 542.957 335.464 542.957 335.654V438.1C542.957 438.29 542.801 438.445 542.612 438.445Z" fill="#D3BBA3"/>
<path d="M559.035 569.614C558.845 569.614 558.69 569.459 558.69 569.269V480.819H442.162V569.269C442.162 569.459 442.007 569.614 441.817 569.614C441.628 569.614 441.472 569.459 441.472 569.269V480.474C441.472 480.284 441.628 480.129 441.817 480.129H559.035C559.225 480.129 559.38 480.284 559.38 480.474V569.269C559.38 569.459 559.225 569.614 559.035 569.614Z" fill="#D3BBA3"/>
<path d="M553.259 492.297H447.596C447.407 492.297 447.251 492.142 447.251 491.952C447.251 491.763 447.407 491.608 447.596 491.608H553.259C553.449 491.608 553.604 491.763 553.604 491.952C553.604 492.142 553.449 492.297 553.259 492.297Z" fill="#D3BBA3"/>
<path d="M553.259 505.465H447.596C447.407 505.465 447.251 505.31 447.251 505.121C447.251 504.931 447.407 504.776 447.596 504.776H553.259C553.449 504.776 553.604 504.931 553.604 505.121C553.604 505.31 553.449 505.465 553.259 505.465Z" fill="#D3BBA3"/>
<path d="M553.259 518.634H447.596C447.407 518.634 447.251 518.479 447.251 518.289C447.251 518.099 447.407 517.944 447.596 517.944H553.259C553.449 517.944 553.604 518.099 553.604 518.289C553.604 518.479 553.449 518.634 553.259 518.634Z" fill="#D3BBA3"/>
<path d="M553.259 531.802H447.596C447.407 531.802 447.251 531.647 447.251 531.457C447.251 531.268 447.407 531.112 447.596 531.112H553.259C553.449 531.112 553.604 531.268 553.604 531.457C553.604 531.647 553.449 531.802 553.259 531.802Z" fill="#D3BBA3"/>
<path d="M553.259 544.97H447.596C447.407 544.97 447.251 544.815 447.251 544.625C447.251 544.436 447.407 544.281 447.596 544.281H553.259C553.449 544.281 553.604 544.436 553.604 544.625C553.604 544.815 553.449 544.97 553.259 544.97Z" fill="#D3BBA3"/>
<path d="M553.259 558.138H447.596C447.407 558.138 447.251 557.983 447.251 557.794C447.251 557.604 447.407 557.449 447.596 557.449H553.259C553.449 557.449 553.604 557.604 553.604 557.794C553.604 557.983 553.449 558.138 553.259 558.138Z" fill="#D3BBA3"/>
<path d="M366.218 357.925H91.3398V459.082H366.218V357.925Z" fill="#363E44"/>
<path d="M175.153 459.499C174.963 459.499 174.808 459.344 174.808 459.154V357.925C174.808 357.736 174.963 357.58 175.153 357.58C175.342 357.58 175.497 357.736 175.497 357.925V459.154C175.497 459.344 175.342 459.499 175.153 459.499Z" fill="#D3BBA3"/>
<path d="M282.405 459.499C282.216 459.499 282.06 459.344 282.06 459.154V357.925C282.06 357.736 282.216 357.58 282.405 357.58C282.595 357.58 282.75 357.736 282.75 357.925V459.154C282.75 459.344 282.595 459.499 282.405 459.499Z" fill="#D3BBA3"/>
<path d="M573.327 199.368C556.111 199.368 542.153 213.326 542.153 230.543C542.153 247.759 573.327 285.753 573.327 285.753C573.327 285.753 604.501 247.759 604.501 230.543C604.501 213.326 590.544 199.368 573.327 199.368Z" fill="white"/>
<path d="M574.057 251.839C585.83 251.44 595.051 241.573 594.652 229.799C594.253 218.026 584.386 208.805 572.613 209.204C560.839 209.602 551.618 219.47 552.017 231.243C552.416 243.017 562.283 252.238 574.057 251.839Z" fill="#F2E6DC"/>
<path d="M372.611 548.149H210.675V572.817H372.611V548.149Z" fill="#D3BBA3"/>
<path d="M361.914 443.766L313.492 417.617L275.818 487.38L324.24 513.529L361.914 443.766Z" fill="#D3BBA3"/>
<path d="M378.361 436.629L310.434 399.947L303.736 412.349L371.664 449.032L378.361 436.629Z" fill="#F7F1EB"/>
<path d="M387.681 430.648L310.318 388.87L305.714 397.396L383.077 439.173L387.681 430.648Z" fill="white"/>
<path d="M333.989 518.795L266.062 482.113L259.364 494.516L327.291 531.198L333.989 518.795Z" fill="#F7F1EB"/>
<path d="M332.008 533.745L254.645 491.968L250.041 500.493L327.404 542.271L332.008 533.745Z" fill="#D3BBA3"/>
<path d="M442.895 525.098L346.19 472.875L339.959 484.413L436.664 536.636L442.895 525.098Z" fill="white"/>
<path d="M436.673 536.981C436.618 536.981 436.562 536.967 436.511 536.94L348.571 489.453C348.402 489.363 348.34 489.153 348.433 488.987C348.522 488.818 348.733 488.756 348.902 488.849L436.842 536.336C437.011 536.426 437.073 536.636 436.98 536.802C436.918 536.915 436.797 536.981 436.676 536.981H436.673Z" fill="#D3BBA3"/>
<path d="M539.895 569.138L446.382 518.639L433.173 543.098L526.686 593.597L539.895 569.138Z" fill="white"/>
<path d="M526.695 593.936C526.64 593.936 526.582 593.923 526.53 593.895L473.684 565.359C473.516 565.269 473.453 565.059 473.547 564.893C473.636 564.724 473.847 564.662 474.015 564.755L526.557 593.13L536.285 575.117C536.374 574.948 536.584 574.886 536.753 574.979C536.922 575.069 536.984 575.279 536.891 575.444L526.999 593.761C526.954 593.84 526.882 593.902 526.795 593.926C526.764 593.936 526.73 593.94 526.695 593.94V593.936Z" fill="#D3BBA3"/>
<path d="M208.913 29.9777L168.163 35.7773C168.163 35.7773 122.273 74.5338 100.753 91.9398C112.425 123.031 144.282 145.34 181.759 145.34C229.125 145.34 267.523 109.704 267.523 65.7447C267.523 65.1344 267.513 64.524 267.499 63.9172L208.913 29.9777Z" fill="#363E44"/>
<path d="M183.246 44.2998C192.416 37.452 193.114 22.8797 184.804 11.7517C176.495 0.623676 162.324 -2.84611 153.154 4.00172C143.984 10.8495 143.286 25.4218 151.595 36.5499C159.905 47.6779 174.076 51.1477 183.246 44.2998Z" fill="#363E44"/>
<path d="M166.184 53.3971C159.702 53.3971 152.768 49.9076 148.037 43.57C144.527 38.8703 142.737 33.3258 142.996 27.9502C143.254 22.5505 145.547 17.9714 149.45 15.0578C157.488 9.05812 169.929 12.0821 177.19 21.8022C184.449 31.5224 183.818 44.3114 175.78 50.3145C172.984 52.404 169.649 53.3971 166.191 53.3971H166.184ZM159.04 12.6614C155.723 12.6614 152.533 13.613 149.857 15.6129C146.123 18.4024 143.927 22.7953 143.682 27.9847C143.434 33.1982 145.175 38.5875 148.588 43.1597C155.619 52.5764 167.629 55.5383 175.363 49.7628C183.093 43.9907 183.666 31.6327 176.635 22.216C172.039 16.0612 165.312 12.6614 159.043 12.6614H159.04Z" fill="#363E44"/>
<path d="M111.77 97.2464C111.628 97.2464 111.497 97.1602 111.446 97.0188C111.384 96.8499 111.466 96.6637 111.625 96.5878C112.694 95.9499 139.444 73.9201 153.471 62.338C153.619 62.2173 153.836 62.238 153.957 62.3828C154.078 62.5311 154.057 62.7483 153.912 62.869C144.23 70.8651 112.583 96.974 111.89 97.2223C111.852 97.2361 111.811 97.243 111.773 97.243L111.77 97.2464Z" fill="white"/>
<path d="M357.498 182.149C344.95 160.643 323.758 145.558 299.325 140.761C226.757 126.51 165.887 134.013 124.324 144.416C88.5021 153.381 59.1071 178.894 44.9562 213.002C28.7708 252.017 8.42368 301.266 8.23059 302.718L112.456 348.674H344.836L341.857 308.856L396.085 297.622L357.498 182.152V182.149Z" fill="white"/>
<path d="M98.8567 274.516C98.8153 274.516 98.7739 274.509 98.736 274.492C98.5567 274.423 98.467 274.226 98.536 274.047L110.525 242.438C110.594 242.259 110.794 242.173 110.97 242.238C111.149 242.307 111.239 242.504 111.17 242.683L99.1808 274.292C99.1291 274.43 98.9981 274.516 98.8601 274.516H98.8567Z" fill="#363E44"/>
<path d="M271.607 220.193L150.408 190.154L112.081 344.797L233.279 374.836L271.607 220.193Z" fill="#EFBC73"/>
<path d="M225.898 237.59C225.87 237.59 225.843 237.59 225.815 237.58L178.59 225.877C178.404 225.832 178.294 225.643 178.339 225.46C178.383 225.274 178.573 225.164 178.756 225.208L225.981 236.911C226.167 236.956 226.277 237.146 226.232 237.328C226.195 237.487 226.053 237.59 225.898 237.59Z" fill="#9E9569"/>
<path d="M220.512 259.334C220.485 259.334 220.457 259.334 220.429 259.324L173.204 247.621C173.018 247.576 172.908 247.386 172.953 247.204C172.997 247.018 173.187 246.907 173.37 246.952L220.595 258.655C220.781 258.7 220.891 258.889 220.847 259.072C220.809 259.231 220.667 259.334 220.512 259.334Z" fill="#9E9569"/>
<path d="M217.767 247.114C217.74 247.114 217.712 247.114 217.685 247.104L181.331 238.097C181.145 238.052 181.035 237.866 181.08 237.68C181.125 237.494 181.314 237.384 181.497 237.428L217.85 246.435C218.036 246.48 218.147 246.669 218.102 246.852C218.064 247.011 217.923 247.114 217.767 247.114Z" fill="#9E9569"/>
<path d="M8.02715 332.192C24.9021 377.11 157.716 351.102 193.434 343.771C198.551 344.371 206.296 344.485 213.943 340.716C222.66 336.42 222.902 331.192 231.394 325.227C245.731 315.159 259.458 320.503 260.275 314.352C260.834 310.128 252.969 306.666 244.973 305.376C236.763 304.052 230.898 306.649 230.439 305.366C229.936 303.959 236.239 302.09 243.859 299.049C247.4 297.635 259.513 299.742 261.127 294.084C262.413 289.574 250.369 284.233 238.984 285.805C230.929 286.919 225.691 292.822 224.798 291.636C224.129 290.746 227.336 287.305 230.984 285.16C237.004 281.626 249.421 283.647 250.804 278.412C252.159 273.282 241.559 268.803 230.994 269.585C222.088 270.247 216.561 277.109 215.443 275.64C214.657 274.609 216.492 271.02 222.395 264.989C227.322 259.955 240.149 253.338 235.649 247.397C231.867 242.401 218.229 249.028 206.792 257.462C199.213 263.051 192.196 269.592 187.997 273.202C187.71 270.275 187.459 265.751 188.007 260.282C188.983 250.531 190.603 247.159 186.997 244.58C183.283 241.921 178.256 247.924 174.511 255.986C170.042 265.603 170.677 274.251 170.07 279.161C150.854 279.902 61.8208 273.43 42.6046 274.168C16.7818 278.333 -1.05512 308.004 8.03059 332.189L8.02715 332.192Z" fill="#BC8271"/>
<path d="M421.794 284.112C403.637 302.904 379.596 308.211 364.808 286.667C326.234 230.477 314.207 206.306 293.953 180.325C283.322 166.687 270.075 155.067 268.93 138.479C268.423 131.124 269.371 123.048 274.802 123.221C283.285 123.493 284.564 145.009 291.484 145.04C298.435 145.071 303.004 123.831 296.684 118.625C291.581 114.425 280.84 129 276.057 122.8C272.785 118.559 280.116 110.025 284.857 106.015C286.36 104.743 292.677 99.398 301.325 101.108C310.473 102.915 314.341 111.053 314.721 111.887C317.172 107.191 321.807 104.598 325.541 105.363C330.527 106.387 334.754 113.577 331.82 121.135C332.351 120.273 336.344 113.908 340.164 114.487C343.912 115.056 347.281 122.269 346.319 132.734C349.719 127.81 353.598 125.707 355.698 126.424C361.587 128.434 364.487 139.672 360.125 166.056C370.045 177.828 397.244 205.434 422.691 233.27C435.662 247.462 435.676 269.299 422.536 283.336C422.294 283.595 422.046 283.853 421.798 284.112H421.794Z" fill="#BC8271"/>
<path d="M323.462 171.073C323.306 171.073 323.169 170.97 323.127 170.815C322.403 167.987 320.424 162.595 315.283 158.26C309.473 153.361 303.063 152.592 299.756 152.568C299.566 152.568 299.411 152.412 299.415 152.219C299.415 152.03 299.559 151.864 299.763 151.878C303.159 151.902 309.752 152.692 315.728 157.733C321.013 162.191 323.051 167.736 323.796 170.642C323.844 170.829 323.731 171.015 323.548 171.063C323.52 171.07 323.489 171.073 323.462 171.073Z" fill="#363E44"/>
<path d="M347.419 155.691C347.171 155.691 346.933 155.66 346.712 155.595C344.202 154.871 342.278 149.64 343.057 142.144C340.344 149.226 336.409 153.898 333.313 153.512C329.996 153.099 326.682 146.44 326.648 136.193C324.272 144.396 319.658 149.085 316.417 148.778C312.186 148.378 308.08 139.923 308.911 129.207C308.925 129.017 309.09 128.876 309.28 128.89C309.469 128.903 309.611 129.069 309.597 129.258C308.742 140.275 313.1 147.771 316.479 148.088C319.721 148.395 324.5 142.799 326.499 133.989C326.551 133.762 326.758 133.613 326.989 133.644C327.217 133.675 327.382 133.875 327.372 134.11C326.951 144.802 330.144 152.423 333.392 152.826C336.44 153.205 340.664 147.526 343.212 139.61C343.285 139.382 343.512 139.254 343.74 139.31C343.967 139.365 344.109 139.585 344.071 139.82C342.668 147.968 344.402 154.212 346.902 154.933C349.526 155.688 354.694 150.785 357.915 142.54C357.984 142.365 358.184 142.275 358.363 142.344C358.539 142.413 358.629 142.613 358.56 142.792C355.408 150.861 350.491 155.691 347.419 155.691Z" fill="#363E44"/>
<path d="M195.024 82.5472H194.893C185.866 82.5472 178.549 89.8646 178.549 98.8911V128.372C178.549 137.399 185.866 144.716 194.893 144.716H195.024C204.05 144.716 211.368 137.399 211.368 128.372V98.8911C211.368 89.8646 204.05 82.5472 195.024 82.5472Z" fill="#BC8271"/>
<path d="M197.572 40.7909C199.065 40.646 213.368 39.4737 221.984 49.2559C228.398 56.5348 229.167 65.8757 228.088 81.7438C226.819 100.426 223.45 111.418 218.071 115.107C209.575 120.935 184.111 107.904 174.535 91.5915C167.625 79.8163 168.411 64.6516 175.718 53.0005C183.004 41.3839 196.62 40.8874 197.572 40.7943V40.7909Z" fill="#BC8271"/>
<path d="M231.446 65.7412C231.429 65.8654 231.508 65.9654 231.491 66.0895C231.491 66.0964 231.491 66.0998 231.487 66.1033C231.811 67.8239 232.156 69.6376 232.787 71.272C233.067 71.9961 233.546 72.4064 233.887 73.0581C234.135 73.5374 234.373 73.9959 234.639 74.4545C238.766 70.3755 240.349 65.1171 240.349 65.1171C240.349 65.1171 236.115 64.5447 231.446 65.7412Z" fill="white"/>
<path d="M217.661 79.4543C217.723 79.5267 217.788 79.5956 217.854 79.6681C219.236 79.8198 226.15 80.3542 231.774 76.7648C232.829 76.0924 233.77 75.3131 234.608 74.489C234.68 74.0132 234.729 73.5305 234.729 73.0374C234.729 70.1341 233.453 67.5342 231.436 65.7481C229.691 66.2033 227.877 66.9101 226.177 67.9928C220.467 71.6375 218.05 78.2785 217.661 79.4543Z" fill="#363E44"/>
<path d="M198.675 77.4544C198.637 79.5232 198.996 81.0921 200.12 82.7231C205.044 82.4265 208.909 80.4956 208.909 80.4956C208.909 80.4956 205.123 75.2373 199.179 72.8339C198.637 74.258 198.699 75.9855 198.672 77.4544H198.675Z" fill="white"/>
<path d="M199.165 72.8305C198.503 72.5684 197.81 72.3409 197.093 72.1581C189.865 70.341 182.738 73.9097 182.738 73.9097C182.738 73.9097 187.328 80.4266 194.555 82.2472C196.42 82.7162 198.282 82.8265 200.013 82.7299C201.537 79.5749 201.268 75.7648 199.162 72.827L199.165 72.8305Z" fill="#363E44"/>
<path d="M159.526 50.3593C154.488 66.6412 163.432 87.6849 178.511 100.922C179.018 94.8534 176.78 77.3854 179.659 73.2512C183.245 68.1032 181.725 55.3039 180.163 49.6042C199.575 51.2868 228.088 56.6693 228.66 56.0624C230.353 54.2591 227.084 47.2871 219.588 38.8151C215.361 34.0361 208.613 27.1364 200.344 26.8261C185.635 26.2744 165.781 30.1432 159.526 50.3628V50.3593Z" fill="#363E44"/>
<path d="M182.311 78.844C184.88 84.2747 183.238 90.4399 178.649 92.6087C174.056 94.781 168.253 92.1363 165.684 86.7021C163.115 81.268 164.757 75.1062 169.346 72.9374C173.939 70.7651 179.742 73.4098 182.311 78.844Z" fill="#BC8271"/>
<path d="M170.336 86.0815C170.229 86.0815 170.122 86.0298 170.053 85.9367C169.829 85.6194 169.632 85.2781 169.46 84.9195C168.077 81.9921 168.984 78.6474 171.487 77.4647C172.108 77.1716 172.773 77.0337 173.473 77.0475C173.663 77.0509 173.815 77.2096 173.811 77.3992C173.808 77.5854 173.653 77.7371 173.466 77.7371C173.466 77.7371 173.463 77.7371 173.459 77.7371C172.863 77.7233 172.304 77.844 171.784 78.0888C169.625 79.1095 168.863 82.0403 170.087 84.6264C170.239 84.9471 170.418 85.2574 170.618 85.5436C170.729 85.6987 170.691 85.916 170.535 86.0229C170.477 86.0642 170.404 86.0849 170.339 86.0849L170.336 86.0815Z" fill="#363E44"/>
<path d="M218.874 89.8261C218.809 89.8261 218.743 89.8089 218.685 89.7675C218.526 89.6606 218.485 89.4468 218.588 89.2882C219.123 88.4848 219.333 87.7366 219.209 87.0676C219.078 86.3642 218.619 85.947 217.985 85.3677C217.492 84.9195 216.93 84.4092 216.392 83.6403C215.705 82.661 215.243 81.5059 215.012 80.2094C214.978 80.0232 215.102 79.8439 215.292 79.8094C215.481 79.7749 215.657 79.8991 215.692 80.0887C215.905 81.2852 216.333 82.3472 216.957 83.2472C217.45 83.954 217.981 84.4368 218.447 84.8609C219.126 85.4781 219.712 86.0125 219.885 86.9435C220.043 87.7952 219.798 88.7158 219.16 89.6744C219.095 89.7744 218.985 89.8296 218.874 89.8296V89.8261Z" fill="#363E44"/>
<path d="M213.55 98.9256C212.964 98.9256 212.316 98.8429 211.637 98.6153C209.313 97.8395 208.268 95.9361 208.002 95.3706C207.923 95.1982 207.996 94.9914 208.168 94.9121C208.34 94.8293 208.547 94.9052 208.627 95.0776C208.861 95.581 209.792 97.274 211.857 97.9602C213.709 98.5774 215.299 98.005 215.895 97.7291C216.068 97.6498 216.274 97.7257 216.354 97.8981C216.433 98.0705 216.357 98.2774 216.185 98.3567C215.733 98.567 214.771 98.9256 213.557 98.9256H213.55Z" fill="#363E44"/>
<path d="M208.313 116.39C208.282 116.39 208.251 116.387 208.22 116.376C188.531 110.88 183.555 102.439 183.352 102.084C183.259 101.919 183.318 101.708 183.483 101.615C183.649 101.522 183.859 101.577 183.952 101.743C184 101.829 189.031 110.304 208.406 115.714C208.589 115.766 208.695 115.956 208.644 116.138C208.602 116.29 208.464 116.39 208.313 116.39Z" fill="#363E44"/>
<path d="M194.958 149.268C209.271 149.268 220.874 144.613 220.874 138.872C220.874 133.13 209.271 128.476 194.958 128.476C180.645 128.476 169.042 133.13 169.042 138.872C169.042 144.613 180.645 149.268 194.958 149.268Z" fill="#BC8271"/>
<path d="M294.502 126.234L255.364 116.534L254.718 119.141L293.856 128.841L294.502 126.234Z" fill="#FFDA00"/>
</g>
<defs>
<clipPath id="clip0_103_27">
<rect width="631" height="631" fill="white"/>
</clipPath>
</defs>
</svg>
