<svg width="1728" height="620" viewBox="0 0 1728 620" fill="none" xmlns="http://www.w3.org/2000/svg">
<g clip-path="url(#clip0_103_120)">
<rect width="1728" height="620" fill="#F2E6DC"/>
<g clip-path="url(#clip1_103_120)">
<path d="M1309.5 685C1483.75 685 1625 543.746 1625 369.5C1625 195.254 1483.75 54 1309.5 54C1135.25 54 994 195.254 994 369.5C994 543.746 1135.25 685 1309.5 685Z" fill="#F2E6DC"/>
<path d="M1378.11 514.22H1132.34V626.903H1378.11V514.22Z" fill="white"/>
<path d="M1176.44 539.436C1189.96 539.436 1200.94 550.411 1200.94 563.931V626.903H1151.94V563.931C1151.94 550.411 1162.92 539.436 1176.44 539.436H1176.44Z" fill="#F7F1EB"/>
<path d="M1255.22 539.436C1268.74 539.436 1279.72 550.411 1279.72 563.931V626.903H1230.73V563.931C1230.73 550.411 1241.7 539.436 1255.22 539.436H1255.22Z" fill="#F7F1EB"/>
<path d="M1334.01 539.436C1347.53 539.436 1358.5 550.411 1358.5 563.931V626.903H1309.51V563.931C1309.51 550.411 1320.49 539.436 1334.01 539.436H1334.01Z" fill="#F7F1EB"/>
<path d="M1411.62 402.729H1065.8V523.909H1411.62V402.729Z" fill="#8B865C"/>
<path d="M1429.25 373.186H1376.99V626.903H1429.25V373.186Z" fill="#363E44"/>
<path d="M1582.65 509.427H1418.28V626.903H1582.65V509.427Z" fill="#363E44"/>
<path d="M1376.78 501.486H1131.01V514.537H1376.78V501.486Z" fill="#8B865C"/>
<path d="M1591.68 519.571H1404.39V382.789L1498.04 297.942L1591.68 382.789V519.571Z" fill="#8B865C"/>
<path d="M1490.18 389.654H1428.75V493.386H1490.18V389.654Z" fill="#363E44"/>
<path d="M1459.46 492.445C1459.27 492.445 1459.12 492.29 1459.12 492.1V389.654C1459.12 389.464 1459.27 389.309 1459.46 389.309C1459.65 389.309 1459.81 389.464 1459.81 389.654V492.1C1459.81 492.29 1459.65 492.445 1459.46 492.445Z" fill="#D3BBA3"/>
<path d="M1567.33 389.654H1505.89V493.386H1567.33V389.654Z" fill="#363E44"/>
<path d="M1536.61 492.445C1536.42 492.445 1536.27 492.29 1536.27 492.1V389.654C1536.27 389.464 1536.42 389.309 1536.61 389.309C1536.8 389.309 1536.96 389.464 1536.96 389.654V492.1C1536.96 492.29 1536.8 492.445 1536.61 492.445Z" fill="#D3BBA3"/>
<path d="M1553.03 623.614C1552.85 623.614 1552.69 623.459 1552.69 623.269V534.819H1436.16V623.269C1436.16 623.459 1436.01 623.614 1435.82 623.614C1435.63 623.614 1435.47 623.459 1435.47 623.269V534.474C1435.47 534.284 1435.63 534.129 1435.82 534.129H1553.03C1553.22 534.129 1553.38 534.284 1553.38 534.474V623.269C1553.38 623.459 1553.22 623.614 1553.03 623.614Z" fill="#D3BBA3"/>
<path d="M1547.26 546.297H1441.6C1441.41 546.297 1441.25 546.142 1441.25 545.952C1441.25 545.763 1441.41 545.608 1441.6 545.608H1547.26C1547.45 545.608 1547.6 545.763 1547.6 545.952C1547.6 546.142 1547.45 546.297 1547.26 546.297Z" fill="#D3BBA3"/>
<path d="M1547.26 559.465H1441.6C1441.41 559.465 1441.25 559.31 1441.25 559.121C1441.25 558.931 1441.41 558.776 1441.6 558.776H1547.26C1547.45 558.776 1547.6 558.931 1547.6 559.121C1547.6 559.31 1547.45 559.465 1547.26 559.465Z" fill="#D3BBA3"/>
<path d="M1547.26 572.634H1441.6C1441.41 572.634 1441.25 572.479 1441.25 572.289C1441.25 572.099 1441.41 571.944 1441.6 571.944H1547.26C1547.45 571.944 1547.6 572.099 1547.6 572.289C1547.6 572.479 1547.45 572.634 1547.26 572.634Z" fill="#D3BBA3"/>
<path d="M1547.26 585.802H1441.6C1441.41 585.802 1441.25 585.647 1441.25 585.457C1441.25 585.268 1441.41 585.112 1441.6 585.112H1547.26C1547.45 585.112 1547.6 585.268 1547.6 585.457C1547.6 585.647 1547.45 585.802 1547.26 585.802Z" fill="#D3BBA3"/>
<path d="M1547.26 598.97H1441.6C1441.41 598.97 1441.25 598.815 1441.25 598.625C1441.25 598.436 1441.41 598.281 1441.6 598.281H1547.26C1547.45 598.281 1547.6 598.436 1547.6 598.625C1547.6 598.815 1547.45 598.97 1547.26 598.97Z" fill="#D3BBA3"/>
<path d="M1547.26 612.138H1441.6C1441.41 612.138 1441.25 611.983 1441.25 611.794C1441.25 611.604 1441.41 611.449 1441.6 611.449H1547.26C1547.45 611.449 1547.6 611.604 1547.6 611.794C1547.6 611.983 1547.45 612.138 1547.26 612.138Z" fill="#D3BBA3"/>
<path d="M1360.22 411.925H1085.34V513.082H1360.22V411.925Z" fill="#363E44"/>
<path d="M1169.15 513.499C1168.96 513.499 1168.81 513.344 1168.81 513.154V411.925C1168.81 411.736 1168.96 411.58 1169.15 411.58C1169.34 411.58 1169.5 411.736 1169.5 411.925V513.154C1169.5 513.344 1169.34 513.499 1169.15 513.499Z" fill="#D3BBA3"/>
<path d="M1276.41 513.499C1276.22 513.499 1276.06 513.344 1276.06 513.154V411.925C1276.06 411.736 1276.22 411.58 1276.41 411.58C1276.59 411.58 1276.75 411.736 1276.75 411.925V513.154C1276.75 513.344 1276.59 513.499 1276.41 513.499Z" fill="#D3BBA3"/>
<path d="M1567.33 253.368C1550.11 253.368 1536.15 267.326 1536.15 284.543C1536.15 301.759 1567.33 339.753 1567.33 339.753C1567.33 339.753 1598.5 301.759 1598.5 284.543C1598.5 267.326 1584.54 253.368 1567.33 253.368Z" fill="white"/>
<path d="M1568.06 305.839C1579.83 305.44 1589.05 295.573 1588.65 283.799C1588.25 272.026 1578.39 262.805 1566.61 263.204C1554.84 263.602 1545.62 273.47 1546.02 285.243C1546.42 297.017 1556.28 306.238 1568.06 305.839Z" fill="#F2E6DC"/>
<path d="M1366.61 602.149H1204.67V626.817H1366.61V602.149Z" fill="#D3BBA3"/>
<path d="M1355.91 497.766L1307.49 471.617L1269.82 541.38L1318.24 567.529L1355.91 497.766Z" fill="#D3BBA3"/>
<path d="M1372.36 490.629L1304.43 453.947L1297.74 466.349L1365.66 503.032L1372.36 490.629Z" fill="#F7F1EB"/>
<path d="M1381.68 484.648L1304.32 442.87L1299.71 451.396L1377.08 493.173L1381.68 484.648Z" fill="white"/>
<path d="M1327.99 572.795L1260.06 536.113L1253.36 548.516L1321.29 585.198L1327.99 572.795Z" fill="#F7F1EB"/>
<path d="M1326.01 587.745L1248.64 545.968L1244.04 554.493L1321.4 596.271L1326.01 587.745Z" fill="#D3BBA3"/>
<path d="M1436.89 579.098L1340.19 526.875L1333.96 538.413L1430.66 590.636L1436.89 579.098Z" fill="white"/>
<path d="M1430.67 590.981C1430.62 590.981 1430.56 590.967 1430.51 590.94L1342.57 543.453C1342.4 543.363 1342.34 543.153 1342.43 542.987C1342.52 542.818 1342.73 542.756 1342.9 542.849L1430.84 590.336C1431.01 590.426 1431.07 590.636 1430.98 590.802C1430.92 590.915 1430.8 590.981 1430.68 590.981H1430.67Z" fill="#D3BBA3"/>
<path d="M1533.89 623.138L1440.38 572.639L1427.17 597.098L1520.69 647.597L1533.89 623.138Z" fill="white"/>
<path d="M1520.7 647.936C1520.64 647.936 1520.58 647.923 1520.53 647.895L1467.68 619.359C1467.52 619.269 1467.45 619.059 1467.55 618.893C1467.64 618.724 1467.85 618.662 1468.02 618.755L1520.56 647.13L1530.28 629.117C1530.37 628.948 1530.58 628.886 1530.75 628.979C1530.92 629.069 1530.98 629.279 1530.89 629.444L1521 647.761C1520.95 647.84 1520.88 647.902 1520.8 647.926C1520.76 647.936 1520.73 647.94 1520.7 647.94V647.936Z" fill="#D3BBA3"/>
<path d="M1202.91 83.9777L1162.16 89.7773C1162.16 89.7773 1116.27 128.534 1094.75 145.94C1106.42 177.031 1138.28 199.34 1175.76 199.34C1223.13 199.34 1261.52 163.704 1261.52 119.745C1261.52 119.134 1261.51 118.524 1261.5 117.917L1202.91 83.9777Z" fill="#363E44"/>
<path d="M1177.25 98.2998C1186.42 91.452 1187.11 76.8797 1178.8 65.7517C1170.49 54.6237 1156.32 51.1539 1147.15 58.0017C1137.98 64.8495 1137.29 79.4218 1145.6 90.5499C1153.91 101.678 1168.08 105.148 1177.25 98.2998Z" fill="#363E44"/>
<path d="M1160.18 107.397C1153.7 107.397 1146.77 103.908 1142.04 97.57C1138.53 92.8703 1136.74 87.3258 1137 81.9502C1137.25 76.5505 1139.55 71.9714 1143.45 69.0578C1151.49 63.0581 1163.93 66.0821 1171.19 75.8022C1178.45 85.5224 1177.82 98.3114 1169.78 104.314C1166.98 106.404 1163.65 107.397 1160.19 107.397H1160.18ZM1153.04 66.6614C1149.72 66.6614 1146.53 67.613 1143.86 69.6129C1140.12 72.4024 1137.93 76.7953 1137.68 81.9847C1137.43 87.1982 1139.17 92.5875 1142.59 97.1597C1149.62 106.576 1161.63 109.538 1169.36 103.763C1177.09 97.9907 1177.67 85.6327 1170.64 76.216C1166.04 70.0612 1159.31 66.6614 1153.04 66.6614H1153.04Z" fill="#363E44"/>
<path d="M1105.77 151.246C1105.63 151.246 1105.5 151.16 1105.45 151.019C1105.38 150.85 1105.47 150.664 1105.62 150.588C1106.69 149.95 1133.44 127.92 1147.47 116.338C1147.62 116.217 1147.84 116.238 1147.96 116.383C1148.08 116.531 1148.06 116.748 1147.91 116.869C1138.23 124.865 1106.58 150.974 1105.89 151.222C1105.85 151.236 1105.81 151.243 1105.77 151.243L1105.77 151.246Z" fill="white"/>
<path d="M1351.5 236.149C1338.95 214.643 1317.76 199.558 1293.33 194.761C1220.76 180.51 1159.89 188.013 1118.32 198.416C1082.5 207.381 1053.11 232.894 1038.96 267.002C1022.77 306.017 1002.42 355.266 1002.23 356.718L1106.46 402.674H1338.84L1335.86 362.856L1390.09 351.622L1351.5 236.152V236.149Z" fill="white"/>
<path d="M1092.86 328.516C1092.82 328.516 1092.77 328.509 1092.74 328.492C1092.56 328.423 1092.47 328.226 1092.54 328.047L1104.53 296.438C1104.59 296.259 1104.79 296.173 1104.97 296.238C1105.15 296.307 1105.24 296.504 1105.17 296.683L1093.18 328.292C1093.13 328.43 1093 328.516 1092.86 328.516H1092.86Z" fill="#363E44"/>
<path d="M1265.61 274.193L1144.41 244.154L1106.08 398.797L1227.28 428.836L1265.61 274.193Z" fill="#EFBC73"/>
<path d="M1219.9 291.59C1219.87 291.59 1219.84 291.59 1219.82 291.58L1172.59 279.877C1172.4 279.832 1172.29 279.643 1172.34 279.46C1172.38 279.274 1172.57 279.164 1172.76 279.208L1219.98 290.911C1220.17 290.956 1220.28 291.146 1220.23 291.328C1220.19 291.487 1220.05 291.59 1219.9 291.59Z" fill="#9E9569"/>
<path d="M1214.51 313.334C1214.48 313.334 1214.46 313.334 1214.43 313.324L1167.2 301.621C1167.02 301.576 1166.91 301.386 1166.95 301.204C1167 301.018 1167.19 300.907 1167.37 300.952L1214.59 312.655C1214.78 312.7 1214.89 312.889 1214.85 313.072C1214.81 313.231 1214.67 313.334 1214.51 313.334Z" fill="#9E9569"/>
<path d="M1211.77 301.114C1211.74 301.114 1211.71 301.114 1211.68 301.104L1175.33 292.097C1175.15 292.052 1175.03 291.866 1175.08 291.68C1175.12 291.494 1175.31 291.384 1175.5 291.428L1211.85 300.435C1212.04 300.48 1212.15 300.669 1212.1 300.852C1212.06 301.011 1211.92 301.114 1211.77 301.114Z" fill="#9E9569"/>
<path d="M1002.03 386.192C1018.9 431.11 1151.72 405.102 1187.43 397.771C1192.55 398.371 1200.3 398.485 1207.94 394.716C1216.66 390.42 1216.9 385.192 1225.39 379.227C1239.73 369.159 1253.46 374.503 1254.28 368.352C1254.83 364.128 1246.97 360.666 1238.97 359.376C1230.76 358.052 1224.9 360.649 1224.44 359.366C1223.94 357.959 1230.24 356.09 1237.86 353.049C1241.4 351.635 1253.51 353.742 1255.13 348.084C1256.41 343.574 1244.37 338.233 1232.98 339.805C1224.93 340.919 1219.69 346.822 1218.8 345.636C1218.13 344.746 1221.34 341.305 1224.98 339.16C1231 335.626 1243.42 337.647 1244.8 332.412C1246.16 327.282 1235.56 322.803 1224.99 323.585C1216.09 324.247 1210.56 331.109 1209.44 329.64C1208.66 328.609 1210.49 325.02 1216.39 318.989C1221.32 313.955 1234.15 307.338 1229.65 301.397C1225.87 296.401 1212.23 303.028 1200.79 311.462C1193.21 317.051 1186.2 323.592 1182 327.202C1181.71 324.275 1181.46 319.751 1182.01 314.282C1182.98 304.531 1184.6 301.159 1181 298.58C1177.28 295.921 1172.26 301.924 1168.51 309.986C1164.04 319.603 1164.68 328.251 1164.07 333.161C1144.85 333.902 1055.82 327.43 1036.6 328.168C1010.78 332.333 992.945 362.004 1002.03 386.189L1002.03 386.192Z" fill="#BC8271"/>
<path d="M1415.79 338.112C1397.64 356.904 1373.6 362.211 1358.81 340.667C1320.23 284.477 1308.21 260.306 1287.95 234.325C1277.32 220.687 1264.07 209.067 1262.93 192.479C1262.42 185.124 1263.37 177.048 1268.8 177.221C1277.28 177.493 1278.56 199.009 1285.48 199.04C1292.44 199.071 1297 177.831 1290.68 172.625C1285.58 168.425 1274.84 183 1270.06 176.8C1266.79 172.559 1274.12 164.025 1278.86 160.015C1280.36 158.743 1286.68 153.398 1295.32 155.108C1304.47 156.915 1308.34 165.053 1308.72 165.887C1311.17 161.191 1315.81 158.598 1319.54 159.363C1324.53 160.387 1328.75 167.577 1325.82 175.135C1326.35 174.273 1330.34 167.908 1334.16 168.487C1337.91 169.056 1341.28 176.269 1340.32 186.734C1343.72 181.81 1347.6 179.707 1349.7 180.424C1355.59 182.434 1358.49 193.672 1354.13 220.056C1364.05 231.828 1391.24 259.434 1416.69 287.27C1429.66 301.462 1429.68 323.299 1416.54 337.336C1416.29 337.595 1416.05 337.853 1415.8 338.112H1415.79Z" fill="#BC8271"/>
<path d="M1317.46 225.073C1317.31 225.073 1317.17 224.97 1317.13 224.815C1316.4 221.987 1314.42 216.595 1309.28 212.26C1303.47 207.361 1297.06 206.592 1293.76 206.568C1293.57 206.568 1293.41 206.412 1293.41 206.219C1293.41 206.03 1293.56 205.864 1293.76 205.878C1297.16 205.902 1303.75 206.692 1309.73 211.733C1315.01 216.191 1317.05 221.736 1317.8 224.642C1317.84 224.829 1317.73 225.015 1317.55 225.063C1317.52 225.07 1317.49 225.073 1317.46 225.073Z" fill="#363E44"/>
<path d="M1341.42 209.691C1341.17 209.691 1340.93 209.66 1340.71 209.595C1338.2 208.871 1336.28 203.64 1337.06 196.144C1334.34 203.226 1330.41 207.898 1327.31 207.512C1324 207.099 1320.68 200.44 1320.65 190.193C1318.27 198.396 1313.66 203.085 1310.42 202.778C1306.19 202.378 1302.08 193.923 1302.91 183.207C1302.92 183.017 1303.09 182.876 1303.28 182.89C1303.47 182.903 1303.61 183.069 1303.6 183.258C1302.74 194.275 1307.1 201.771 1310.48 202.088C1313.72 202.395 1318.5 196.799 1320.5 187.989C1320.55 187.762 1320.76 187.613 1320.99 187.644C1321.22 187.675 1321.38 187.875 1321.37 188.11C1320.95 198.802 1324.14 206.423 1327.39 206.826C1330.44 207.205 1334.66 201.526 1337.21 193.61C1337.28 193.382 1337.51 193.254 1337.74 193.31C1337.97 193.365 1338.11 193.585 1338.07 193.82C1336.67 201.968 1338.4 208.212 1340.9 208.933C1343.53 209.688 1348.69 204.785 1351.91 196.54C1351.98 196.365 1352.18 196.275 1352.36 196.344C1352.54 196.413 1352.63 196.613 1352.56 196.792C1349.41 204.861 1344.49 209.691 1341.42 209.691Z" fill="#363E44"/>
<path d="M1189.02 136.547H1188.89C1179.87 136.547 1172.55 143.865 1172.55 152.891V182.372C1172.55 191.399 1179.87 198.716 1188.89 198.716H1189.02C1198.05 198.716 1205.37 191.399 1205.37 182.372V152.891C1205.37 143.865 1198.05 136.547 1189.02 136.547Z" fill="#BC8271"/>
<path d="M1191.57 94.7909C1193.06 94.646 1207.37 93.4737 1215.98 103.256C1222.4 110.535 1223.17 119.876 1222.09 135.744C1220.82 154.426 1217.45 165.418 1212.07 169.107C1203.57 174.935 1178.11 161.904 1168.54 145.592C1161.63 133.816 1162.41 118.652 1169.72 107.001C1177 95.3839 1190.62 94.8874 1191.57 94.7943V94.7909Z" fill="#BC8271"/>
<path d="M1225.45 119.741C1225.43 119.865 1225.51 119.965 1225.49 120.089C1225.49 120.096 1225.49 120.1 1225.49 120.103C1225.81 121.824 1226.16 123.638 1226.79 125.272C1227.07 125.996 1227.55 126.406 1227.89 127.058C1228.14 127.537 1228.37 127.996 1228.64 128.455C1232.77 124.375 1234.35 119.117 1234.35 119.117C1234.35 119.117 1230.11 118.545 1225.45 119.741Z" fill="white"/>
<path d="M1211.66 133.454C1211.72 133.527 1211.79 133.596 1211.85 133.668C1213.24 133.82 1220.15 134.354 1225.77 130.765C1226.83 130.092 1227.77 129.313 1228.61 128.489C1228.68 128.013 1228.73 127.53 1228.73 127.037C1228.73 124.134 1227.45 121.534 1225.44 119.748C1223.69 120.203 1221.88 120.91 1220.18 121.993C1214.47 125.637 1212.05 132.278 1211.66 133.454Z" fill="#363E44"/>
<path d="M1192.68 131.454C1192.64 133.523 1193 135.092 1194.12 136.723C1199.04 136.427 1202.91 134.496 1202.91 134.496C1202.91 134.496 1199.12 129.237 1193.18 126.834C1192.64 128.258 1192.7 129.985 1192.67 131.454H1192.68Z" fill="white"/>
<path d="M1193.16 126.83C1192.5 126.568 1191.81 126.341 1191.09 126.158C1183.87 124.341 1176.74 127.91 1176.74 127.91C1176.74 127.91 1181.33 134.427 1188.55 136.247C1190.42 136.716 1192.28 136.826 1194.01 136.73C1195.54 133.575 1195.27 129.765 1193.16 126.827L1193.16 126.83Z" fill="#363E44"/>
<path d="M1153.53 104.359C1148.49 120.641 1157.43 141.685 1172.51 154.922C1173.02 148.853 1170.78 131.385 1173.66 127.251C1177.25 122.103 1175.72 109.304 1174.16 103.604C1193.58 105.287 1222.09 110.669 1222.66 110.062C1224.35 108.259 1221.08 101.287 1213.59 92.8151C1209.36 88.0361 1202.61 81.1364 1194.34 80.8261C1179.63 80.2744 1159.78 84.1432 1153.53 104.363V104.359Z" fill="#363E44"/>
<path d="M1176.31 132.844C1178.88 138.275 1177.24 144.44 1172.65 146.609C1168.06 148.781 1162.25 146.136 1159.68 140.702C1157.12 135.268 1158.76 129.106 1163.35 126.937C1167.94 124.765 1173.74 127.41 1176.31 132.844Z" fill="#BC8271"/>
<path d="M1164.34 140.081C1164.23 140.081 1164.12 140.03 1164.05 139.937C1163.83 139.619 1163.63 139.278 1163.46 138.919C1162.08 135.992 1162.98 132.647 1165.49 131.465C1166.11 131.172 1166.77 131.034 1167.47 131.047C1167.66 131.051 1167.81 131.21 1167.81 131.399C1167.81 131.585 1167.65 131.737 1167.47 131.737C1167.47 131.737 1167.46 131.737 1167.46 131.737C1166.86 131.723 1166.3 131.844 1165.78 132.089C1163.63 133.109 1162.86 136.04 1164.09 138.626C1164.24 138.947 1164.42 139.257 1164.62 139.544C1164.73 139.699 1164.69 139.916 1164.54 140.023C1164.48 140.064 1164.4 140.085 1164.34 140.085L1164.34 140.081Z" fill="#363E44"/>
<path d="M1212.87 143.826C1212.81 143.826 1212.74 143.809 1212.68 143.768C1212.53 143.661 1212.48 143.447 1212.59 143.288C1213.12 142.485 1213.33 141.737 1213.21 141.068C1213.08 140.364 1212.62 139.947 1211.98 139.368C1211.49 138.919 1210.93 138.409 1210.39 137.64C1209.71 136.661 1209.24 135.506 1209.01 134.209C1208.98 134.023 1209.1 133.844 1209.29 133.809C1209.48 133.775 1209.66 133.899 1209.69 134.089C1209.91 135.285 1210.33 136.347 1210.96 137.247C1211.45 137.954 1211.98 138.437 1212.45 138.861C1213.13 139.478 1213.71 140.013 1213.88 140.944C1214.04 141.795 1213.8 142.716 1213.16 143.674C1213.09 143.774 1212.98 143.83 1212.87 143.83V143.826Z" fill="#363E44"/>
<path d="M1207.55 152.926C1206.96 152.926 1206.32 152.843 1205.64 152.615C1203.31 151.839 1202.27 149.936 1202 149.371C1201.92 149.198 1202 148.991 1202.17 148.912C1202.34 148.829 1202.55 148.905 1202.63 149.078C1202.86 149.581 1203.79 151.274 1205.86 151.96C1207.71 152.577 1209.3 152.005 1209.9 151.729C1210.07 151.65 1210.27 151.726 1210.35 151.898C1210.43 152.071 1210.36 152.277 1210.18 152.357C1209.73 152.567 1208.77 152.926 1207.56 152.926H1207.55Z" fill="#363E44"/>
<path d="M1202.31 170.39C1202.28 170.39 1202.25 170.387 1202.22 170.376C1182.53 164.88 1177.56 156.439 1177.35 156.084C1177.26 155.919 1177.32 155.708 1177.48 155.615C1177.65 155.522 1177.86 155.577 1177.95 155.743C1178 155.829 1183.03 164.304 1202.41 169.714C1202.59 169.766 1202.7 169.956 1202.64 170.138C1202.6 170.29 1202.46 170.39 1202.31 170.39Z" fill="#363E44"/>
<path d="M1188.96 203.268C1203.27 203.268 1214.87 198.613 1214.87 192.872C1214.87 187.13 1203.27 182.476 1188.96 182.476C1174.65 182.476 1163.04 187.13 1163.04 192.872C1163.04 198.613 1174.65 203.268 1188.96 203.268Z" fill="#BC8271"/>
<path d="M1288.5 180.234L1249.36 170.534L1248.72 173.141L1287.86 182.841L1288.5 180.234Z" fill="#FFDA00"/>
</g>
</g>
<defs>
<clipPath id="clip0_103_120">
<rect width="1728" height="620" fill="white"/>
</clipPath>
<clipPath id="clip1_103_120">
<rect width="631" height="631" fill="white" transform="translate(994 54)"/>
</clipPath>
</defs>
</svg>
