<svg width="39" height="39" viewBox="0 0 39 39" fill="none" xmlns="http://www.w3.org/2000/svg">
<path d="M9.75 21.125L9.75 17.875L22.75 17.875L17.0625 12.1875L19.37 9.88L28.99 19.5L19.37 29.12L17.0625 26.8125L22.75 21.125L9.75 21.125ZM35.75 19.5C35.75 21.634 35.3297 23.7471 34.513 25.7186C33.6964 27.6901 32.4994 29.4815 30.9905 30.9905C29.4815 32.4994 27.6901 33.6964 25.7186 34.513C23.7471 35.3297 21.634 35.75 19.5 35.75C15.1902 35.75 11.057 34.0379 8.00951 30.9905C4.96205 27.943 3.25 23.8098 3.25 19.5C3.25 17.366 3.67032 15.2529 4.48696 13.2814C5.30359 11.3099 6.50056 9.51847 8.00951 8.00951C11.057 4.96205 15.1902 3.25 19.5 3.25C23.8098 3.25 27.943 4.96205 30.9905 8.00951C34.038 11.057 35.75 15.1902 35.75 19.5ZM32.5 19.5C32.5 16.0522 31.1304 12.7456 28.6924 10.3076C26.2544 7.86964 22.9478 6.5 19.5 6.5C16.0522 6.5 12.7456 7.86964 10.3076 10.3076C7.86964 12.7456 6.5 16.0522 6.5 19.5C6.5 22.9478 7.86964 26.2544 10.3076 28.6924C12.7456 31.1304 16.0522 32.5 19.5 32.5C22.9478 32.5 26.2544 31.1304 28.6924 28.6924C31.1304 26.2544 32.5 22.9478 32.5 19.5Z" fill="black"/>
</svg>
